<svg t="1715669765302" class="icon" viewBox="0 0 1024 1024" version="1.1" xmlns="http://www.w3.org/2000/svg" p-id="6465" width="200" height="200"><path d="M883.2 294.4c44.8 0 76.8 32 76.8 76.8v416c0 44.8-32 76.8-76.8 76.8h-83.2v57.6c0 12.8-6.4 25.6-19.2 32-6.4 0-12.8 6.4-19.2 6.4-6.4 0-12.8 0-19.2-6.4l-134.4-96H492.8c-44.8 0-76.8-32-76.8-76.8v-51.2h236.8c51.2 0 96-44.8 96-96V294.4h134.4z" fill="#3E68FF" p-id="6466"></path><path d="M633.6 128c44.8 0 76.8 32 76.8 76.8v416c0 44.8-32 76.8-76.8 76.8H396.8l-134.4 96c-6.4 6.4-12.8 6.4-19.2 6.4-6.4 0-12.8 0-19.2-6.4-12.8-6.4-19.2-19.2-19.2-32v-70.4h-64c-44.8 0-76.8-32-76.8-76.8V204.8C64 160 96 128 140.8 128h492.8z" fill="#3E68FF" p-id="6467"></path><path d="M326.4 243.2c6.4 0 12.8 0 19.2 6.4s6.4 0 12.8 6.4 6.4 12.8 6.4 19.2c0 6.4 6.4 12.8 6.4 25.6l76.8 192c12.8 6.4 12.8 19.2 12.8 25.6 0 6.4 0 12.8-6.4 19.2-6.4 6.4-12.8 6.4-19.2 6.4h-12.8c-6.4 0-6.4-6.4-6.4-6.4s-6.4-6.4-6.4-12.8-6.4-12.8-6.4-12.8L384 473.6H262.4l-12.8 38.4c-6.4 12.8-12.8 19.2-12.8 25.6-6.4 6.4-12.8 6.4-19.2 6.4-6.4 0-12.8 0-19.2-6.4s-12.8-12.8-12.8-19.2v-12.8c6.4 0 6.4-6.4 12.8-19.2l76.8-192c0-6.4 6.4-12.8 6.4-19.2 0-6.4 6.4-12.8 12.8-19.2l12.8-12.8c6.4-6.4 6.4 0 19.2 0z m211.2 0c6.4 0 19.2 0 19.2 6.4s6.4 12.8 6.4 25.6V512c0 12.8 0 19.2-6.4 25.6 0 6.4-6.4 6.4-19.2 6.4-6.4 0-12.8 0-19.2-6.4S512 524.8 512 512V275.2c0-12.8 0-19.2 6.4-25.6s12.8-6.4 19.2-6.4z m-211.2 57.6l-44.8 128h89.6l-44.8-128z" fill="#FFFFFF" p-id="6468"></path></svg>